<svg xmlns="http://www.w3.org/2000/svg" width="1440" height="900"><path d="M816,460L843,378L689,368Z" fill="#7ecbc4" stroke="#7ecbc4" stroke-width="1.51"/><path d="M689,368L700,496L816,460Z" fill="#7ccbc4" stroke="#7ccbc4" stroke-width="1.51"/><path d="M689,368L621,451L700,496Z" fill="#82cec2" stroke="#82cec2" stroke-width="1.51"/><path d="M843,378L757,242L689,368Z" fill="#8ad0c0" stroke="#8ad0c0" stroke-width="1.51"/><path d="M689,368L555,417L621,451Z" fill="#8bd1c0" stroke="#8bd1c0" stroke-width="1.51"/><path d="M757,242L643,291L689,368Z" fill="#93d5bd" stroke="#93d5bd" stroke-width="1.51"/><path d="M757,242L647,150L643,291Z" fill="#9ed8bf" stroke="#9ed8bf" stroke-width="1.51"/><path d="M843,378L798,210L757,242Z" fill="#90d1c0" stroke="#90d1c0" stroke-width="1.51"/><path d="M843,378L948,336L798,210Z" fill="#87ccc2" stroke="#87ccc2" stroke-width="1.51"/><path d="M942,565L948,336L843,378Z" fill="#70c3c9" stroke="#70c3c9" stroke-width="1.51"/><path d="M540,626L736,661L700,496Z" fill="#71c3c9" stroke="#71c3c9" stroke-width="1.51"/><path d="M643,291L555,417L689,368Z" fill="#92d4be" stroke="#92d4be" stroke-width="1.51"/><path d="M816,460L942,565L843,378Z" fill="#6dc3ca" stroke="#6dc3ca" stroke-width="1.51"/><path d="M736,661L942,565L816,460Z" fill="#64bdcd" stroke="#64bdcd" stroke-width="1.51"/><path d="M700,496L736,661L816,460Z" fill="#6ec3c9" stroke="#6ec3c9" stroke-width="1.51"/><path d="M540,626L700,496L621,451Z" fill="#7dc9c5" stroke="#7dc9c5" stroke-width="1.51"/><path d="M798,210L742,132L757,242Z" fill="#9bd6c3" stroke="#9bd6c3" stroke-width="1.51"/><path d="M449,293L448,447L555,417Z" fill="#9bd8ba" stroke="#9bd8ba" stroke-width="1.51"/><path d="M878,64L742,132L798,210Z" fill="#9fd6c7" stroke="#9fd6c7" stroke-width="1.51"/><path d="M948,336L981,233L798,210Z" fill="#8acbc4" stroke="#8acbc4" stroke-width="1.51"/><path d="M1071,222L981,233L948,336Z" fill="#84c6c4" stroke="#84c6c4" stroke-width="1.51"/><path d="M742,132L647,150L757,242Z" fill="#a1d9c2" stroke="#a1d9c2" stroke-width="1.51"/><path d="M942,565L1049,427L948,336Z" fill="#68becb" stroke="#68becb" stroke-width="1.51"/><path d="M942,565L1124,466L1049,427Z" fill="#5eb6ca" stroke="#5eb6ca" stroke-width="1.51"/><path d="M884,685L939,635L942,565Z" fill="#52b3d1" stroke="#52b3d1" stroke-width="1.51"/><path d="M736,661L884,685L942,565Z" fill="#58b5ce" stroke="#58b5ce" stroke-width="1.51"/><path d="M555,417L540,626L621,451Z" fill="#85cdc2" stroke="#85cdc2" stroke-width="1.51"/><path d="M555,417L460,595L540,626Z" fill="#85cbc3" stroke="#85cbc3" stroke-width="1.51"/><path d="M449,293L555,417L643,291Z" fill="#9cd8ba" stroke="#9cd8ba" stroke-width="1.51"/><path d="M484,181L449,293L643,291Z" fill="#a8ddb8" stroke="#a8ddb8" stroke-width="1.51"/><path d="M981,233L878,64L798,210Z" fill="#97d1c8" stroke="#97d1c8" stroke-width="1.51"/><path d="M742,132L762,11L647,150Z" fill="#a8dcc7" stroke="#a8dcc7" stroke-width="1.51"/><path d="M981,233L962,79L878,64Z" fill="#98d0cc" stroke="#98d0cc" stroke-width="1.51"/><path d="M1049,427L1071,222L948,336Z" fill="#79c1c4" stroke="#79c1c4" stroke-width="1.51"/><path d="M647,150L484,181L643,291Z" fill="#a7dcbd" stroke="#a7dcbd" stroke-width="1.51"/><path d="M552,-8L484,181L647,150Z" fill="#b4e2c0" stroke="#b4e2c0" stroke-width="1.51"/><path d="M448,447L460,595L555,417Z" fill="#8ed1bf" stroke="#8ed1bf" stroke-width="1.51"/><path d="M1134,625L1124,466L942,565Z" fill="#52afcc" stroke="#52afcc" stroke-width="1.51"/><path d="M1049,427L1124,466L1071,222Z" fill="#6fbac3" stroke="#6fbac3" stroke-width="1.51"/><path d="M1058,96L962,79L981,233Z" fill="#93cbcb" stroke="#93cbcb" stroke-width="1.51"/><path d="M962,79L929,59L878,64Z" fill="#9cd2cf" stroke="#9cd2cf" stroke-width="1.51"/><path d="M856,-26L762,11L878,64Z" fill="#a6d8d0" stroke="#a6d8d0" stroke-width="1.51"/><path d="M878,64L762,11L742,132Z" fill="#a5d9cb" stroke="#a5d9cb" stroke-width="1.51"/><path d="M378,547L407,568L448,447Z" fill="#91d1c2" stroke="#91d1c2" stroke-width="1.51"/><path d="M448,447L407,568L460,595Z" fill="#8ecec2" stroke="#8ecec2" stroke-width="1.51"/><path d="M736,661L779,810L884,685Z" fill="#57aec7" stroke="#57aec7" stroke-width="1.51"/><path d="M540,626L559,745L736,661Z" fill="#70bbc4" stroke="#70bbc4" stroke-width="1.51"/><path d="M504,791L559,745L540,626Z" fill="#74b8c0" stroke="#74b8c0" stroke-width="1.51"/><path d="M504,791L540,626L460,595Z" fill="#7cbfc2" stroke="#7cbfc2" stroke-width="1.51"/><path d="M559,745L779,810L736,661Z" fill="#61b0c3" stroke="#61b0c3" stroke-width="1.51"/><path d="M884,685L1042,709L939,635Z" fill="#49abcf" stroke="#49abcf" stroke-width="1.51"/><path d="M939,635L1134,625L942,565Z" fill="#4cb0d1" stroke="#4cb0d1" stroke-width="1.51"/><path d="M250,378L378,547L448,447Z" fill="#9cd7c1" stroke="#9cd7c1" stroke-width="1.51"/><path d="M326,697L504,791L460,595Z" fill="#80bfc1" stroke="#80bfc1" stroke-width="1.51"/><path d="M889,870L1042,709L884,685Z" fill="#44a3ca" stroke="#44a3ca" stroke-width="1.51"/><path d="M929,59L856,-26L878,64Z" fill="#a1d5d0" stroke="#a1d5d0" stroke-width="1.51"/><path d="M962,79L1036,-70L929,59Z" fill="#9cd0d3" stroke="#9cd0d3" stroke-width="1.51"/><path d="M1071,222L1058,96L981,233Z" fill="#8cc6c7" stroke="#8cc6c7" stroke-width="1.51"/><path d="M1098,45L1058,96L1220,202Z" fill="#8ec1c7" stroke="#8ec1c7" stroke-width="1.51"/><path d="M779,810L844,814L884,685Z" fill="#4ea6c5" stroke="#4ea6c5" stroke-width="1.51"/><path d="M875,-128L856,-26L1036,-70Z" fill="#a5d6d9" stroke="#a5d6d9" stroke-width="1.51"/><path d="M1042,709L1134,625L939,635Z" fill="#45a7cc" stroke="#45a7cc" stroke-width="1.51"/><path d="M641,-108L552,-8L762,11Z" fill="#b6e2cd" stroke="#b6e2cd" stroke-width="1.51"/><path d="M762,11L552,-8L647,150Z" fill="#b0e0c8" stroke="#b0e0c8" stroke-width="1.51"/><path d="M326,697L460,595L407,568Z" fill="#89c9c7" stroke="#89c9c7" stroke-width="1.51"/><path d="M559,745L731,928L779,810Z" fill="#5ca6be" stroke="#5ca6be" stroke-width="1.51"/><path d="M449,293L274,332L448,447Z" fill="#a6dcbc" stroke="#a6dcbc" stroke-width="1.51"/><path d="M484,181L323,207L449,293Z" fill="#b4e1ba" stroke="#b4e1ba" stroke-width="1.51"/><path d="M279,94L323,207L484,181Z" fill="#bfe6bf" stroke="#bfe6bf" stroke-width="1.51"/><path d="M1058,96L1098,45L962,79Z" fill="#96cacd" stroke="#96cacd" stroke-width="1.51"/><path d="M1220,202L1058,96L1071,222Z" fill="#89c0c4" stroke="#89c0c4" stroke-width="1.51"/><path d="M1220,202L1071,222L1280,379Z" fill="#7ab5bc" stroke="#7ab5bc" stroke-width="1.51"/><path d="M731,928L889,870L844,814Z" fill="#4b9bbf" stroke="#4b9bbf" stroke-width="1.51"/><path d="M844,814L889,870L884,685Z" fill="#49a2c5" stroke="#49a2c5" stroke-width="1.51"/><path d="M1233,766L1285,589L1134,625Z" fill="#3998c5" stroke="#3998c5" stroke-width="1.51"/><path d="M731,928L844,814L779,810Z" fill="#509fbf" stroke="#509fbf" stroke-width="1.51"/><path d="M323,207L274,332L449,293Z" fill="#b3e1b9" stroke="#b3e1b9" stroke-width="1.51"/><path d="M1280,379L1071,222L1124,466Z" fill="#6eb4bf" stroke="#6eb4bf" stroke-width="1.51"/><path d="M552,-8L497,-37L484,181Z" fill="#bce5c3" stroke="#bce5c3" stroke-width="1.51"/><path d="M641,-108L497,-37L552,-8Z" fill="#bee6cb" stroke="#bee6cb" stroke-width="1.51"/><path d="M243,237L250,378L274,332Z" fill="#b5e2be" stroke="#b5e2be" stroke-width="1.51"/><path d="M274,332L250,378L448,447Z" fill="#a7dcbf" stroke="#a7dcbf" stroke-width="1.51"/><path d="M378,547L326,697L407,568Z" fill="#8ccbc8" stroke="#8ccbc8" stroke-width="1.51"/><path d="M1301,490L1280,379L1124,466Z" fill="#5baac0" stroke="#5baac0" stroke-width="1.51"/><path d="M751,-144L762,11L856,-26Z" fill="#addcd3" stroke="#addcd3" stroke-width="1.51"/><path d="M751,-144L641,-108L762,11Z" fill="#b3e1d2" stroke="#b3e1d2" stroke-width="1.51"/><path d="M164,544L326,697L378,547Z" fill="#94ceca" stroke="#94ceca" stroke-width="1.51"/><path d="M551,917L559,745L504,791Z" fill="#6eacba" stroke="#6eacba" stroke-width="1.51"/><path d="M551,917L731,928L559,745Z" fill="#63a4ba" stroke="#63a4ba" stroke-width="1.51"/><path d="M1036,-70L856,-26L929,59Z" fill="#a0d3d5" stroke="#a0d3d5" stroke-width="1.51"/><path d="M361,884L487,858L504,791Z" fill="#75acb8" stroke="#75acb8" stroke-width="1.51"/><path d="M1098,45L1036,-70L962,79Z" fill="#99cbd1" stroke="#99cbd1" stroke-width="1.51"/><path d="M1135,-99L1036,-70L1098,45Z" fill="#9ac8d3" stroke="#9ac8d3" stroke-width="1.51"/><path d="M875,-128L751,-144L856,-26Z" fill="#aedcd7" stroke="#aedcd7" stroke-width="1.51"/><path d="M1285,589L1124,466L1134,625Z" fill="#4aa5c7" stroke="#4aa5c7" stroke-width="1.51"/><path d="M1285,589L1301,490L1124,466Z" fill="#4fa4c3" stroke="#4fa4c3" stroke-width="1.51"/><path d="M279,94L243,237L323,207Z" fill="#c3e7c1" stroke="#c3e7c1" stroke-width="1.51"/><path d="M323,207L243,237L274,332Z" fill="#bae4bd" stroke="#bae4bd" stroke-width="1.51"/><path d="M1154,802L1134,625L1042,709Z" fill="#3a9bc6" stroke="#3a9bc6" stroke-width="1.51"/><path d="M1087,889L1154,802L1042,709Z" fill="#3392c1" stroke="#3392c1" stroke-width="1.51"/><path d="M1032,908L1042,709L889,870Z" fill="#3997c5" stroke="#3997c5" stroke-width="1.51"/><path d="M487,858L551,917L504,791Z" fill="#6fa8b7" stroke="#6fa8b7" stroke-width="1.51"/><path d="M1220,202L1275,150L1098,45Z" fill="#8abac3" stroke="#8abac3" stroke-width="1.51"/><path d="M1369,183L1275,150L1220,202Z" fill="#81b1bd" stroke="#81b1bd" stroke-width="1.51"/><path d="M1388,270L1220,202L1280,379Z" fill="#74acb7" stroke="#74acb7" stroke-width="1.51"/><path d="M497,-37L279,94L484,181Z" fill="#c2e7c2" stroke="#c2e7c2" stroke-width="1.51"/><path d="M1005,975L1032,908L889,870Z" fill="#358ec0" stroke="#358ec0" stroke-width="1.51"/><path d="M1032,908L1087,889L1042,709Z" fill="#3491c1" stroke="#3491c1" stroke-width="1.51"/><path d="M1301,490L1351,495L1280,379Z" fill="#56a2bd" stroke="#56a2bd" stroke-width="1.51"/><path d="M1285,589L1351,495L1301,490Z" fill="#4b9dc1" stroke="#4b9dc1" stroke-width="1.51"/><path d="M1393,687L1351,495L1285,589Z" fill="#3e96c3" stroke="#3e96c3" stroke-width="1.51"/><path d="M1154,802L1233,766L1134,625Z" fill="#3493c2" stroke="#3493c2" stroke-width="1.51"/><path d="M1222,901L1233,766L1154,802Z" fill="#2886bc" stroke="#2886bc" stroke-width="1.51"/><path d="M1351,495L1368,345L1280,379Z" fill="#5fa4bb" stroke="#5fa4bb" stroke-width="1.51"/><path d="M326,697L293,787L504,791Z" fill="#80b8bf" stroke="#80b8bf" stroke-width="1.51"/><path d="M457,1023L591,996L551,917Z" fill="#6798ae" stroke="#6798ae" stroke-width="1.51"/><path d="M165,740L293,787L326,697Z" fill="#8abdc3" stroke="#8abdc3" stroke-width="1.51"/><path d="M250,378L164,544L378,547Z" fill="#a0d7c6" stroke="#a0d7c6" stroke-width="1.51"/><path d="M95,398L164,544L250,378Z" fill="#aaddc7" stroke="#aaddc7" stroke-width="1.51"/><path d="M95,398L250,378L243,237Z" fill="#b5e2c1" stroke="#b5e2c1" stroke-width="1.51"/><path d="M1036,-70L1135,-99L875,-128Z" fill="#a2d0d9" stroke="#a2d0d9" stroke-width="1.51"/><path d="M875,-128L1372,-182L751,-144Z" fill="#a6d2dd" stroke="#a6d2dd" stroke-width="1.51"/><path d="M1236,-27L1135,-99L1098,45Z" fill="#95c2cf" stroke="#95c2cf" stroke-width="1.51"/><path d="M457,1023L551,917L487,858Z" fill="#6da0b2" stroke="#6da0b2" stroke-width="1.51"/><path d="M551,917L591,996L731,928Z" fill="#5e9ab4" stroke="#5e9ab4" stroke-width="1.51"/><path d="M845,1074L1005,975L889,870Z" fill="#3b8ab9" stroke="#3b8ab9" stroke-width="1.51"/><path d="M1087,889L1222,901L1154,802Z" fill="#2986bb" stroke="#2986bb" stroke-width="1.51"/><path d="M1032,908L1075,1020L1087,889Z" fill="#2c84bb" stroke="#2c84bb" stroke-width="1.51"/><path d="M845,1074L889,870L731,928Z" fill="#4791b8" stroke="#4791b8" stroke-width="1.51"/><path d="M497,-37L304,-30L279,94Z" fill="#caebc9" stroke="#caebc9" stroke-width="1.51"/><path d="M641,-108L505,-174L497,-37Z" fill="#c4e8ce" stroke="#c4e8ce" stroke-width="1.51"/><path d="M751,-144L505,-174L641,-108Z" fill="#bfe6d4" stroke="#bfe6d4" stroke-width="1.51"/><path d="M1372,-182L505,-174L751,-144Z" fill="#b0dbdd" stroke="#b0dbdd" stroke-width="1.51"/><path d="M279,94L145,184L243,237Z" fill="#c8e9c3" stroke="#c8e9c3" stroke-width="1.51"/><path d="M304,-100L304,-30L497,-37Z" fill="#ceeccd" stroke="#ceeccd" stroke-width="1.51"/><path d="M293,787L361,884L504,791Z" fill="#7cb0bb" stroke="#7cb0bb" stroke-width="1.51"/><path d="M1359,-10L1236,-27L1275,150Z" fill="#8cb5c5" stroke="#8cb5c5" stroke-width="1.51"/><path d="M1275,150L1236,-27L1098,45Z" fill="#8ebcc7" stroke="#8ebcc7" stroke-width="1.51"/><path d="M1368,345L1388,270L1280,379Z" fill="#6ba6b8" stroke="#6ba6b8" stroke-width="1.51"/><path d="M1433,297L1388,270L1368,345Z" fill="#6ea3b5" stroke="#6ea3b5" stroke-width="1.51"/><path d="M1388,270L1369,183L1220,202Z" fill="#7badba" stroke="#7badba" stroke-width="1.51"/><path d="M53,153L145,184L92,-38Z" fill="#d3eecd" stroke="#d3eecd" stroke-width="1.51"/><path d="M591,996L702,1053L731,928Z" fill="#5792b0" stroke="#5792b0" stroke-width="1.51"/><path d="M457,1023L702,1053L591,996Z" fill="#6091a9" stroke="#6091a9" stroke-width="1.51"/><path d="M164,544L145,626L326,697Z" fill="#97cdcd" stroke="#97cdcd" stroke-width="1.51"/><path d="M293,787L243,893L361,884Z" fill="#81aebc" stroke="#81aebc" stroke-width="1.51"/><path d="M59,677L145,626L21,556Z" fill="#9cd0d3" stroke="#9cd0d3" stroke-width="1.51"/><path d="M145,184L95,398L243,237Z" fill="#bfe6c1" stroke="#bfe6c1" stroke-width="1.51"/><path d="M1545,329L1433,297L1368,345Z" fill="#699eb3" stroke="#699eb3" stroke-width="1.51"/><path d="M1388,270L1481,180L1369,183Z" fill="#79a6b7" stroke="#79a6b7" stroke-width="1.51"/><path d="M160,-59L145,184L279,94Z" fill="#d1edca" stroke="#d1edca" stroke-width="1.51"/><path d="M505,-174L304,-100L497,-37Z" fill="#ccebce" stroke="#ccebce" stroke-width="1.51"/><path d="M1075,1020L1222,901L1087,889Z" fill="#2780b9" stroke="#2780b9" stroke-width="1.51"/><path d="M1233,766L1393,687L1285,589Z" fill="#338fc1" stroke="#338fc1" stroke-width="1.51"/><path d="M1351,495L1536,531L1368,345Z" fill="#529aba" stroke="#529aba" stroke-width="1.51"/><path d="M702,1053L845,1074L731,928Z" fill="#4c8baf" stroke="#4c8baf" stroke-width="1.51"/><path d="M1005,975L1075,1020L1032,908Z" fill="#2e83b8" stroke="#2e83b8" stroke-width="1.51"/><path d="M59,677L165,740L145,626Z" fill="#96c8cd" stroke="#96c8cd" stroke-width="1.51"/><path d="M145,626L165,740L326,697Z" fill="#91c6c9" stroke="#91c6c9" stroke-width="1.51"/><path d="M1402,720L1393,687L1233,766Z" fill="#2b88bc" stroke="#2b88bc" stroke-width="1.51"/><path d="M243,893L377,972L361,884Z" fill="#7ba6b8" stroke="#7ba6b8" stroke-width="1.51"/><path d="M361,884L377,972L487,858Z" fill="#76a6b5" stroke="#76a6b5" stroke-width="1.51"/><path d="M845,1074L1075,1020L1005,975Z" fill="#3380b3" stroke="#3380b3" stroke-width="1.51"/><path d="M702,1053L152,1086L845,1074Z" fill="#608ba2" stroke="#608ba2" stroke-width="1.51"/><path d="M377,972L457,1023L487,858Z" fill="#729fb1" stroke="#729fb1" stroke-width="1.51"/><path d="M1393,687L1536,531L1351,495Z" fill="#3f91bf" stroke="#3f91bf" stroke-width="1.51"/><path d="M1433,814L1402,720L1233,766Z" fill="#2582b9" stroke="#2582b9" stroke-width="1.51"/><path d="M1236,-27L1231,-144L1135,-99Z" fill="#98c0d1" stroke="#98c0d1" stroke-width="1.51"/><path d="M1135,-99L1231,-144L875,-128Z" fill="#a0cbd8" stroke="#a0cbd8" stroke-width="1.51"/><path d="M1359,-10L1231,-144L1236,-27Z" fill="#93b9cc" stroke="#93b9cc" stroke-width="1.51"/><path d="M1359,-10L1275,150L1369,183Z" fill="#87b0bf" stroke="#87b0bf" stroke-width="1.51"/><path d="M377,972L152,1086L457,1023Z" fill="#7698ab" stroke="#7698ab" stroke-width="1.51"/><path d="M165,740L243,893L293,787Z" fill="#88b6c1" stroke="#88b6c1" stroke-width="1.51"/><path d="M1481,180L1359,-10L1369,183Z" fill="#84aabc" stroke="#84aabc" stroke-width="1.51"/><path d="M1545,329L1481,180L1433,297Z" fill="#709eaf" stroke="#709eaf" stroke-width="1.51"/><path d="M1433,297L1481,180L1388,270Z" fill="#74a3b4" stroke="#74a3b4" stroke-width="1.51"/><path d="M145,184L10,192L95,398Z" fill="#c4e8c5" stroke="#c4e8c5" stroke-width="1.51"/><path d="M160,-59L279,94L304,-30Z" fill="#d3eecd" stroke="#d3eecd" stroke-width="1.51"/><path d="M304,-100L160,-59L304,-30Z" fill="#d7f0d1" stroke="#d7f0d1" stroke-width="1.51"/><path d="M216,-149L160,-59L304,-100Z" fill="#dbf1d5" stroke="#dbf1d5" stroke-width="1.51"/><path d="M21,556L145,626L164,544Z" fill="#9fd4d0" stroke="#9fd4d0" stroke-width="1.51"/><path d="M165,740L69,890L243,893Z" fill="#8ab3c3" stroke="#8ab3c3" stroke-width="1.51"/><path d="M21,556L164,544L95,398Z" fill="#a7dace" stroke="#a7dace" stroke-width="1.51"/><path d="M-22,573L21,556L-161,431Z" fill="#abdbd5" stroke="#abdbd5" stroke-width="1.51"/><path d="M1222,901L1349,899L1233,766Z" fill="#227eb7" stroke="#227eb7" stroke-width="1.51"/><path d="M1285,1084L1349,899L1222,901Z" fill="#1971ae" stroke="#1971ae" stroke-width="1.51"/><path d="M505,-174L216,-149L304,-100Z" fill="#d6efd3" stroke="#d6efd3" stroke-width="1.51"/><path d="M53,153L10,192L145,184Z" fill="#ceecca" stroke="#ceecca" stroke-width="1.51"/><path d="M-8,150L10,192L53,153Z" fill="#d1edcd" stroke="#d1edcd" stroke-width="1.51"/><path d="M1557,612L1536,531L1393,687Z" fill="#3588bb" stroke="#3588bb" stroke-width="1.51"/><path d="M1557,612L1393,687L1402,720Z" fill="#2d85bc" stroke="#2d85bc" stroke-width="1.51"/><path d="M1536,531L1545,329L1368,345Z" fill="#5b97b4" stroke="#5b97b4" stroke-width="1.51"/><path d="M1349,899L1433,814L1233,766Z" fill="#207cb6" stroke="#207cb6" stroke-width="1.51"/><path d="M160,-59L92,-38L145,184Z" fill="#d6efd0" stroke="#d6efd0" stroke-width="1.51"/><path d="M109,-112L92,-38L160,-59Z" fill="#ddf2d7" stroke="#ddf2d7" stroke-width="1.51"/><path d="M21,556L-22,573L59,677Z" fill="#a0d3d5" stroke="#a0d3d5" stroke-width="1.51"/><path d="M-118,340L21,556L95,398Z" fill="#b2e1ce" stroke="#b2e1ce" stroke-width="1.51"/><path d="M10,192L-45,252L95,398Z" fill="#c4e8c7" stroke="#c4e8c7" stroke-width="1.51"/><path d="M92,-38L-8,150L53,153Z" fill="#d7efd0" stroke="#d7efd0" stroke-width="1.51"/><path d="M1644,746L1557,612L1402,720Z" fill="#2a7cb3" stroke="#2a7cb3" stroke-width="1.51"/><path d="M1536,531L1680,415L1545,329Z" fill="#558dab" stroke="#558dab" stroke-width="1.51"/><path d="M-8,150L-45,252L10,192Z" fill="#cfeccc" stroke="#cfeccc" stroke-width="1.51"/><path d="M1557,612L1577,543L1536,531Z" fill="#3e87b4" stroke="#3e87b4" stroke-width="1.51"/><path d="M92,-38L-117,-8L-8,150Z" fill="#dcf2d6" stroke="#dcf2d6" stroke-width="1.51"/><path d="M216,-149L109,-112L160,-59Z" fill="#def2d8" stroke="#def2d8" stroke-width="1.51"/><path d="M1481,180L1466,-57L1359,-10Z" fill="#87aac0" stroke="#87aac0" stroke-width="1.51"/><path d="M1359,-10L1372,-182L1231,-144Z" fill="#95b7ce" stroke="#95b7ce" stroke-width="1.51"/><path d="M1575,22L1466,-57L1481,180Z" fill="#84a3ba" stroke="#84a3ba" stroke-width="1.51"/><path d="M1231,-144L1372,-182L875,-128Z" fill="#9ec5d6" stroke="#9ec5d6" stroke-width="1.51"/><path d="M1436,-134L1372,-182L1359,-10Z" fill="#92b1cb" stroke="#92b1cb" stroke-width="1.51"/><path d="M1703,263L1587,204L1545,329Z" fill="#6d92a4" stroke="#6d92a4" stroke-width="1.51"/><path d="M1545,329L1587,204L1481,180Z" fill="#729aac" stroke="#729aac" stroke-width="1.51"/><path d="M-59,768L11,781L59,677Z" fill="#95c2cf" stroke="#95c2cf" stroke-width="1.51"/><path d="M59,677L11,781L165,740Z" fill="#93c2cc" stroke="#93c2cc" stroke-width="1.51"/><path d="M243,893L152,1086L377,972Z" fill="#7e9fb2" stroke="#7e9fb2" stroke-width="1.51"/><path d="M11,781L69,890L165,740Z" fill="#8fb9c8" stroke="#8fb9c8" stroke-width="1.51"/><path d="M1610,-189L1436,-134L1466,-57Z" fill="#8fa8c5" stroke="#8fa8c5" stroke-width="1.51"/><path d="M1466,-57L1436,-134L1359,-10Z" fill="#8eadc7" stroke="#8eadc7" stroke-width="1.51"/><path d="M1349,899L1511,874L1433,814Z" fill="#1671b1" stroke="#1671b1" stroke-width="1.51"/><path d="M1433,814L1644,746L1402,720Z" fill="#2178b2" stroke="#2178b2" stroke-width="1.51"/><path d="M1075,1020L1285,1084L1222,901Z" fill="#2072ac" stroke="#2072ac" stroke-width="1.51"/><path d="M845,1074L1285,1084L1075,1020Z" fill="#2b74aa" stroke="#2b74aa" stroke-width="1.51"/><path d="M-148,313L-118,340L-45,252Z" fill="#c7eacc" stroke="#c7eacc" stroke-width="1.51"/><path d="M-45,252L-118,340L95,398Z" fill="#bfe7ca" stroke="#bfe7ca" stroke-width="1.51"/><path d="M-118,631L-59,768L59,677Z" fill="#9bc9d4" stroke="#9bc9d4" stroke-width="1.51"/><path d="M-148,313L-45,252L-177,66Z" fill="#d2eed1" stroke="#d2eed1" stroke-width="1.51"/><path d="M1685,583L1680,415L1577,543Z" fill="#4582aa" stroke="#4582aa" stroke-width="1.51"/><path d="M1460,989L1511,874L1349,899Z" fill="#0d6aae" stroke="#0d6aae" stroke-width="1.51"/><path d="M1587,204L1575,22L1481,180Z" fill="#7d9db0" stroke="#7d9db0" stroke-width="1.51"/><path d="M-89,960L-37,989L69,890Z" fill="#8ba9c3" stroke="#8ba9c3" stroke-width="1.51"/><path d="M-118,631L59,677L-22,573Z" fill="#a0d1d7" stroke="#a0d1d7" stroke-width="1.51"/><path d="M-161,431L-118,631L-22,573Z" fill="#abd9d8" stroke="#abd9d8" stroke-width="1.51"/><path d="M1417,1079L1460,989L1349,899Z" fill="#0e64a6" stroke="#0e64a6" stroke-width="1.51"/><path d="M1577,543L1680,415L1536,531Z" fill="#4988ad" stroke="#4988ad" stroke-width="1.51"/><path d="M1587,204L1691,141L1575,22Z" fill="#7c97ab" stroke="#7c97ab" stroke-width="1.51"/><path d="M1685,583L1577,543L1557,612Z" fill="#3a81b0" stroke="#3a81b0" stroke-width="1.51"/><path d="M-118,340L-161,431L21,556Z" fill="#b4e2d2" stroke="#b4e2d2" stroke-width="1.51"/><path d="M-177,66L-45,252L-8,150Z" fill="#d6efd1" stroke="#d6efd1" stroke-width="1.51"/><path d="M46,981L243,893L69,890Z" fill="#87aac0" stroke="#87aac0" stroke-width="1.51"/><path d="M46,981L152,1086L243,893Z" fill="#82a1b7" stroke="#82a1b7" stroke-width="1.51"/><path d="M457,1023L152,1086L702,1053Z" fill="#6c91a3" stroke="#6c91a3" stroke-width="1.51"/><path d="M845,1074L152,1086L1285,1084Z" fill="#4a83a6" stroke="#4a83a6" stroke-width="1.51"/><path d="M-37,989L46,981L69,890Z" fill="#89a8c0" stroke="#89a8c0" stroke-width="1.51"/><path d="M-148,313L-161,431L-118,340Z" fill="#c2e7d1" stroke="#c2e7d1" stroke-width="1.51"/><path d="M1714,635L1685,583L1557,612Z" fill="#337aad" stroke="#337aad" stroke-width="1.51"/><path d="M1644,746L1433,814L1511,874Z" fill="#1b6fac" stroke="#1b6fac" stroke-width="1.51"/><path d="M1285,1084L1417,1079L1349,899Z" fill="#1464a4" stroke="#1464a4" stroke-width="1.51"/><path d="M1640,914L1644,746L1511,874Z" fill="#1765a3" stroke="#1765a3" stroke-width="1.51"/><path d="M1640,914L1511,874L1460,989Z" fill="#0b61a4" stroke="#0b61a4" stroke-width="1.51"/><path d="M1680,415L1703,263L1545,329Z" fill="#628ca3" stroke="#628ca3" stroke-width="1.51"/><path d="M1786,440L1703,263L1680,415Z" fill="#5b86a0" stroke="#5b86a0" stroke-width="1.51"/><path d="M109,-112L-34,-129L92,-38Z" fill="#e2f4db" stroke="#e2f4db" stroke-width="1.51"/><path d="M216,-149L-34,-129L109,-112Z" fill="#e2f4dc" stroke="#e2f4dc" stroke-width="1.51"/><path d="M-216,-193L-34,-129L216,-149Z" fill="#e9f7e3" stroke="#e9f7e3" stroke-width="1.51"/><path d="M1703,263L1691,141L1587,204Z" fill="#7290a3" stroke="#7290a3" stroke-width="1.51"/><path d="M1575,22L1610,-189L1466,-57Z" fill="#8aa2be" stroke="#8aa2be" stroke-width="1.51"/><path d="M-161,431L-172,631L-118,631Z" fill="#acd9db" stroke="#acd9db" stroke-width="1.51"/><path d="M-118,631L-150,744L-59,768Z" fill="#9dc7d5" stroke="#9dc7d5" stroke-width="1.51"/><path d="M-89,960L69,890L11,781Z" fill="#8eb1c7" stroke="#8eb1c7" stroke-width="1.51"/><path d="M-34,-129L-117,-8L92,-38Z" fill="#e2f4dd" stroke="#e2f4dd" stroke-width="1.51"/><path d="M-148,313L-252,537L-161,431Z" fill="#bbe4d6" stroke="#bbe4d6" stroke-width="1.51"/><path d="M-172,631L-150,744L-118,631Z" fill="#a2ceda" stroke="#a2ceda" stroke-width="1.51"/><path d="M1685,583L1760,477L1680,415Z" fill="#487fa4" stroke="#487fa4" stroke-width="1.51"/><path d="M1644,746L1714,635L1557,612Z" fill="#2d76ab" stroke="#2d76ab" stroke-width="1.51"/><path d="M-89,960L11,781L-59,768Z" fill="#92b7cb" stroke="#92b7cb" stroke-width="1.51"/><path d="M46,981L-37,989L152,1086Z" fill="#849eb6" stroke="#849eb6" stroke-width="1.51"/><path d="M-221,21L-177,66L-117,-8Z" fill="#e4f5de" stroke="#e4f5de" stroke-width="1.51"/><path d="M-117,-8L-177,66L-8,150Z" fill="#def2d8" stroke="#def2d8" stroke-width="1.51"/><path d="M-161,431L-252,537L-172,631Z" fill="#b1dcdc" stroke="#b1dcdc" stroke-width="1.51"/><path d="M1703,263L1762,134L1691,141Z" fill="#738ea2" stroke="#738ea2" stroke-width="1.51"/><path d="M1714,635L1760,477L1685,583Z" fill="#3c7aa8" stroke="#3c7aa8" stroke-width="1.51"/><path d="M1777,773L1786,440L1760,477Z" fill="#3c7aa8" stroke="#3c7aa8" stroke-width="1.51"/><path d="M1644,746L1777,773L1714,635Z" fill="#266ba3" stroke="#266ba3" stroke-width="1.51"/><path d="M1633,1086L1640,914L1460,989Z" fill="#0a5598" stroke="#0a5598" stroke-width="1.51"/><path d="M1691,141L1693,-19L1575,22Z" fill="#7f95ad" stroke="#7f95ad" stroke-width="1.51"/><path d="M1436,-134L1610,-189L1372,-182Z" fill="#93abcb" stroke="#93abcb" stroke-width="1.51"/><path d="M1762,134L1693,-19L1691,141Z" fill="#7c91a7" stroke="#7c91a7" stroke-width="1.51"/><path d="M-209,890L-89,960L-59,768Z" fill="#93b4cc" stroke="#93b4cc" stroke-width="1.51"/><path d="M1760,477L1786,440L1680,415Z" fill="#4f83a2" stroke="#4f83a2" stroke-width="1.51"/><path d="M1777,773L1760,477L1714,635Z" fill="#3175a8" stroke="#3175a8" stroke-width="1.51"/><path d="M-150,744L-209,890L-59,768Z" fill="#98bdd1" stroke="#98bdd1" stroke-width="1.51"/><path d="M-172,631L-252,537L-150,744Z" fill="#a7d3de" stroke="#a7d3de" stroke-width="1.51"/><path d="M-221,21L-252,537L-148,313Z" fill="#cdecd0" stroke="#cdecd0" stroke-width="1.51"/><path d="M1693,-19L1610,-189L1575,22Z" fill="#869bb5" stroke="#869bb5" stroke-width="1.51"/><path d="M1372,-182L-216,-193L505,-174Z" fill="#c9ead4" stroke="#c9ead4" stroke-width="1.51"/><path d="M1786,440L1762,134L1703,263Z" fill="#698b9d" stroke="#698b9d" stroke-width="1.51"/><path d="M-177,66L-221,21L-148,313Z" fill="#ddf2d7" stroke="#ddf2d7" stroke-width="1.51"/><path d="M-216,-193L-221,21L-117,-8Z" fill="#eaf7e4" stroke="#eaf7e4" stroke-width="1.51"/><path d="M1640,914L1777,773L1644,746Z" fill="#1a629e" stroke="#1a629e" stroke-width="1.51"/><path d="M-252,537L-209,890L-150,744Z" fill="#a0c8d9" stroke="#a0c8d9" stroke-width="1.51"/><path d="M1762,134L1759,-74L1693,-19Z" fill="#8093ab" stroke="#8093ab" stroke-width="1.51"/><path d="M1693,-19L1759,-74L1610,-189Z" fill="#8696b2" stroke="#8696b2" stroke-width="1.51"/><path d="M1786,440L1759,-74L1762,134Z" fill="#758fa2" stroke="#758fa2" stroke-width="1.51"/><path d="M1640,914L1739,939L1777,773Z" fill="#135a9a" stroke="#135a9a" stroke-width="1.51"/><path d="M1417,1079L1633,1086L1460,989Z" fill="#095597" stroke="#095597" stroke-width="1.51"/><path d="M1285,1084L1633,1086L1417,1079Z" fill="#0a5698" stroke="#0a5698" stroke-width="1.51"/><path d="M152,1086L1633,1086L1285,1084Z" fill="#2e74a9" stroke="#2e74a9" stroke-width="1.51"/><path d="M1715,996L1739,939L1640,914Z" fill="#0a5294" stroke="#0a5294" stroke-width="1.51"/><path d="M1633,1086L1715,996L1640,914Z" fill="#0a4e90" stroke="#0a4e90" stroke-width="1.51"/><path d="M-252,537L-205,970L-209,890Z" fill="#9cbfd4" stroke="#9cbfd4" stroke-width="1.51"/><path d="M-209,890L-205,970L-89,960Z" fill="#92adcb" stroke="#92adcb" stroke-width="1.51"/><path d="M-89,960L-205,970L-37,989Z" fill="#8ea7c4" stroke="#8ea7c4" stroke-width="1.51"/><path d="M-37,989L-205,970L152,1086Z" fill="#88a0bb" stroke="#88a0bb" stroke-width="1.51"/><path d="M-34,-129L-216,-193L-117,-8Z" fill="#ebf7e5" stroke="#ebf7e5" stroke-width="1.51"/><path d="M-221,21L-216,-193L-252,537Z" fill="#e1f3da" stroke="#e1f3da" stroke-width="1.51"/><path d="M505,-174L-216,-193L216,-149Z" fill="#e2f4dc" stroke="#e2f4dc" stroke-width="1.51"/><path d="M1610,-189L-216,-193L1372,-182Z" fill="#aed9e0" stroke="#aed9e0" stroke-width="1.51"/></svg>